<svg xmlns="http://www.w3.org/2000/svg" width="1600" height="2250" viewBox="0 0 1600 2250" role="img" aria-labelledby="title desc">
  <title id="title">MOIM v3.0 machine topology, readable SVG v3</title>
  <desc id="desc">A dark themed system topology diagram showing signal topology, domain registry, OEPI escalation, morphic scalar state machine, origin protocol, FPGA module integration, unified data flow, safety valves, and creator letter ROM.</desc>

  <defs>
    <marker id="arrow" viewBox="0 0 10 10" refX="8" refY="5" markerWidth="8" markerHeight="8" orient="auto-start-reverse">
      <path d="M2 1L8 5L2 9" fill="none" stroke="currentColor" stroke-width="1.5" stroke-linecap="round" stroke-linejoin="round"/>
    </marker>
    <filter id="softGlow" x="-30%" y="-30%" width="160%" height="160%">
      <feGaussianBlur stdDeviation="3" result="blur"/>
      <feMerge>
        <feMergeNode in="blur"/>
        <feMergeNode in="SourceGraphic"/>
      </feMerge>
    </filter>
  </defs>

  <style>
    :root {
      --bg: #060A12;
      --panel: #071827;
      --panel2: #081F2A;
      --grid: rgba(138, 218, 255, 0.15);
      --cyan: #33D6FF;
      --cyan2: #85F0FF;
      --green: #39E47A;
      --green2: #9DFFB8;
      --yellow: #FFD84A;
      --orange: #FF9A3C;
      --red: #FF5959;
      --purple: #B772FF;
      --pink: #FF6CB3;
      --muted: #A9C2D9;
      --text: #E8F7FF;
      --dark: #05101A;
    }

    .bg { fill: #060A12; }
    .panel { fill: rgba(7, 24, 39, 0.9); stroke: #33D6FF; stroke-width: 1.4; }
    .subpanel { fill: rgba(6, 18, 28, 0.88); stroke: rgba(80, 210, 255, 0.5); stroke-width: 1; }
    .title { fill: #E8F7FF; font-family: Inter, Arial, sans-serif; font-size: 34px; font-weight: 700; letter-spacing: 2px; paint-order: stroke; stroke: rgba(0,0,0,0.25); stroke-width: 0.4px; }
    .subtitle { fill: #85F0FF; font-family: Inter, Arial, sans-serif; font-size: 16px; font-weight: 500; letter-spacing: 1px; }
    .section { fill: #7ED9FF; font-family: Inter, Arial, sans-serif; font-size: 18px; font-weight: 700; letter-spacing: 1px; paint-order: stroke; stroke: rgba(0,0,0,0.25); stroke-width: 0.25px; }
    .label { fill: #E8F7FF; font-family: Inter, Arial, sans-serif; font-size: 16px; font-weight: 700; paint-order: stroke; stroke: rgba(0,0,0,0.30); stroke-width: 0.25px; }
    .small { fill: #A9C2D9; font-family: Inter, Arial, sans-serif; font-size: 13px; paint-order: stroke; stroke: rgba(0,0,0,0.25); stroke-width: 0.2px; }
    .tiny { fill: #A9C2D9; font-family: Inter, Arial, sans-serif; font-size: 10px; paint-order: stroke; stroke: rgba(0,0,0,0.25); stroke-width: 0.2px; }
    .mono { fill: #9DFFB8; font-family: Consolas, Menlo, monospace; font-size: 12px; paint-order: stroke; stroke: rgba(0,0,0,0.30); stroke-width: 0.2px; }
    .wire { fill: none; stroke: rgba(181, 240, 255, 0.75); stroke-width: 2; marker-end: url(#arrow); }
    .wire2 { fill: none; stroke: rgba(255, 216, 74, 0.75); stroke-width: 2; marker-end: url(#arrow); }
    .dash { fill: none; stroke: rgba(181, 240, 255, 0.45); stroke-width: 1.5; stroke-dasharray: 7 5; marker-end: url(#arrow); }
    .gridline { stroke: rgba(138, 218, 255, 0.15); stroke-width: 1; }
    .chip { fill: rgba(20, 52, 70, 0.92); stroke: rgba(80, 220, 255, 0.9); stroke-width: 1.2; rx: 8; }
    .ok { fill: #39E47A; }
    .warn { fill: #FFD84A; }
    .danger { fill: #FF5959; }
    .q { fill: rgba(255, 216, 74, 0.72); stroke: #FFD84A; stroke-width: 1.2; }
  </style>

  <rect class="bg" x="0" y="0" width="1600" height="2250"/>
  <g opacity="0.35">
    <path d="M0 80H1600 M0 160H1600 M0 240H1600 M0 320H1600 M0 400H1600 M0 480H1600 M0 560H1600 M0 640H1600 M0 720H1600 M0 800H1600 M0 880H1600 M0 960H1600 M0 1040H1600 M0 1120H1600 M0 1200H1600 M0 1280H1600 M0 1360H1600 M0 1440H1600 M0 1520H1600 M0 1600H1600 M0 1680H1600 M0 1760H1600 M0 1840H1600 M0 1920H1600 M0 2000H1600" class="gridline"/>
    <path d="M80 0V2100 M160 0V2100 M240 0V2100 M320 0V2100 M400 0V2100 M480 0V2100 M560 0V2100 M640 0V2100 M720 0V2100 M800 0V2100 M880 0V2100 M960 0V2100 M1040 0V2100 M1120 0V2100 M1200 0V2100 M1280 0V2100 M1360 0V2100 M1440 0V2100 M1520 0V2100" class="gridline"/>
  </g>

  <rect x="1" y="1" width="1598" height="2248" fill="none" stroke="rgba(51,214,255,0.35)" stroke-width="2"/>

  <!-- Header -->
  <g transform="translate(0,22)">
    <path d="M410 18H1190L1225 50L1190 82H410L375 50Z" fill="#071827" stroke="#33D6FF" stroke-width="1.8"/>
    <text x="800" y="48" text-anchor="middle" class="title" fill="#E8F7FF">MOIM machine topology</text>
    <text x="800" y="72" text-anchor="middle" class="subtitle" fill="#85F0FF">Meta-ontological inversion machine — unified system topology</text>
  </g>

  <!-- Panel 1 signal topology -->
  <g transform="translate(24,120)">
    <rect class="panel" x="0" y="0" width="700" height="500" rx="16"/>
    <text x="24" y="36" class="section">1. 42-device signal topology</text>
    <rect class="subpanel" x="20" y="60" width="660" height="360" rx="8"/>
    <g filter="url(#softGlow)">
      <ellipse cx="140" cy="160" rx="120" ry="76" fill="rgba(255,89,89,0.35)" stroke="#FF5959" stroke-width="2"/>
      <text x="140" y="153" text-anchor="middle" class="label">Clock</text>
      <text x="140" y="178" text-anchor="middle" class="small">21 devices</text>

      <ellipse cx="300" cy="150" rx="78" ry="58" fill="rgba(64,255,210,0.32)" stroke="#49E9D1" stroke-width="2"/>
      <text x="300" y="143" text-anchor="middle" class="label">Data</text>
      <text x="300" y="168" text-anchor="middle" class="small">7 devices</text>

      <ellipse cx="470" cy="150" rx="150" ry="90" fill="rgba(51,214,255,0.25)" stroke="#33D6FF" stroke-width="2"/>
      <text x="470" y="143" text-anchor="middle" class="label">Control</text>
      <text x="470" y="168" text-anchor="middle" class="small">29 devices</text>

      <ellipse cx="610" cy="150" rx="82" ry="58" fill="rgba(105,255,150,0.24)" stroke="#9DFFB8" stroke-width="2"/>
      <text x="610" y="143" text-anchor="middle" class="label">Power</text>
      <text x="610" y="168" text-anchor="middle" class="small">4 devices</text>

      <ellipse cx="140" cy="300" rx="82" ry="54" fill="rgba(255,216,74,0.24)" stroke="#FFD84A" stroke-width="2"/>
      <text x="140" y="293" text-anchor="middle" class="label">Timing</text>
      <text x="140" y="318" text-anchor="middle" class="small">3 devices</text>

      <ellipse cx="300" cy="300" rx="92" ry="60" fill="rgba(200,220,240,0.22)" stroke="#C8DCEF" stroke-width="2"/>
      <text x="300" y="293" text-anchor="middle" class="label">Thermal</text>
      <text x="300" y="318" text-anchor="middle" class="small">5 devices</text>

      <ellipse cx="485" cy="300" rx="94" ry="58" fill="rgba(255,216,74,0.35)" stroke="#FFD84A" stroke-width="2"/>
      <text x="485" y="290" text-anchor="middle" class="label" fill="#FFD84A">Signal</text>
      <text x="485" y="314" text-anchor="middle" class="label" fill="#FFD84A">Router</text>

      <ellipse cx="565" cy="282" rx="86" ry="52" fill="rgba(255,108,179,0.28)" stroke="#FF6CB3" stroke-width="2"/>
      <text x="565" y="275" text-anchor="middle" class="label">VRM</text>
      <text x="565" y="300" text-anchor="middle" class="small">4 devices</text>
    </g>
    <rect x="130" y="438" width="440" height="30" rx="5" fill="rgba(15,80,30,0.6)" stroke="#39E47A"/>
    <text x="350" y="458" text-anchor="middle" class="mono">Projected cap: 21.3B | model-est. exp: 11.19M×</text>
  </g>

  <!-- Panel 2 domain registry -->
  <g transform="translate(748,120)">
    <rect class="panel" x="0" y="0" width="828" height="500" rx="16"/>
    <text x="24" y="36" class="section">2. Domain registry + semantic layer</text>
    <rect class="subpanel" x="20" y="60" width="788" height="380" rx="8"/>
    <g transform="translate(78,84)">
      <text x="-52" y="2" class="small">Domain</text>
      <text x="654" y="2" text-anchor="end" class="small">Coverage</text>
      <g stroke="rgba(138,218,255,0.16)" stroke-width="1">
        <line x1="120" y1="16" x2="120" y2="318"/>
        <line x1="240" y1="16" x2="240" y2="318"/>
        <line x1="360" y1="16" x2="360" y2="318"/>
        <line x1="480" y1="16" x2="480" y2="318"/>
        <line x1="600" y1="16" x2="600" y2="318"/>
      </g>
      <!-- Bars -->
      <g font-family="Inter,Arial" font-size="10">
        <text x="-52" y="30" class="small">Physics</text><rect x="82" y="18" width="528" height="14" fill="#6AF7E6"/><text x="620" y="30" class="small">75</text>
        <text x="-52" y="52" class="small">Math</text><rect x="82" y="40" width="465" height="14" fill="#55D9FF"/><text x="557" y="52" class="small">66</text>
        <text x="-52" y="74" class="small">Chemistry</text><rect x="82" y="62" width="352" height="14" fill="#F6E59B"/><text x="444" y="74" class="small">50</text>
        <text x="-52" y="96" class="small">CS</text><rect x="82" y="84" width="106" height="14" fill="#8AB4FF"/><text x="198" y="96" class="small">15</text>
        <text x="-52" y="118" class="small">Engineering</text><rect x="82" y="106" width="85" height="14" fill="#FF9AA8"/><text x="177" y="118" class="small">12</text>
        <text x="-52" y="140" class="small">Biology</text><rect x="82" y="128" width="70" height="14" fill="#FF6CB3"/><text x="162" y="140" class="small">10</text>
        <text x="-52" y="162" class="small">Earth/cosmo</text><rect x="82" y="150" width="85" height="14" fill="#FF8B6A"/><text x="177" y="162" class="small">12</text>
        <text x="-52" y="184" class="small">Social</text><rect x="82" y="172" width="92" height="14" fill="#FF5959"/><text x="184" y="184" class="small">13</text>
        <text x="-52" y="206" class="small">Materials</text><rect x="82" y="194" width="106" height="14" fill="#E06BFF"/><text x="198" y="206" class="small">15</text>
        <text x="-52" y="228" class="small">Medicine</text><rect x="82" y="216" width="85" height="14" fill="#4CE0FF"/><text x="177" y="228" class="small">12</text>
        <text x="-52" y="250" class="small">Neuroscience</text><rect x="82" y="238" width="70" height="14" fill="#7EA8FF"/><text x="162" y="250" class="small">10</text>
        <text x="-52" y="272" class="small">Cross-domain</text><rect x="82" y="260" width="92" height="14" fill="#3DE29E"/><text x="184" y="272" class="small">13</text>
        <text x="-52" y="294" class="small">Morphic</text><rect x="82" y="282" width="120" height="14" fill="#6AF7E6"/><text x="212" y="294" class="small">17</text>
        <text x="-52" y="316" class="small">Origin</text><rect x="82" y="304" width="50" height="14" fill="#F6E59B"/><text x="142" y="316" class="small">7</text>
      </g>
    </g>
    <rect x="206" y="452" width="416" height="24" rx="5" fill="rgba(15,80,30,0.6)" stroke="#39E47A"/>
    <text x="414" y="468" text-anchor="middle" class="mono">405 formulas | 13 bridges | 37 semantic components</text>
  </g>

  <!-- Panel 3 OEPI -->
  <g transform="translate(24,650)">
    <rect class="panel" x="0" y="0" width="700" height="380" rx="16"/>
    <text x="24" y="36" class="section">3. OEPI — operator escalation percentage index</text>
    <g transform="translate(32,70)">
      <rect x="0" y="0" width="624" height="38" rx="7" fill="rgba(57,228,122,0.22)" stroke="#39E47A"/>
      <text x="42" y="24" class="mono">0–24%</text><text x="312" y="24" text-anchor="middle" class="label">No escalation</text>

      <rect x="0" y="48" width="624" height="38" rx="7" fill="rgba(57,228,122,0.18)" stroke="#39E47A"/>
      <text x="42" y="72" class="mono">25–49%</text><text x="312" y="72" text-anchor="middle" class="label">Query collective</text>

      <rect x="0" y="96" width="624" height="38" rx="7" fill="rgba(51,214,255,0.18)" stroke="#33D6FF"/>
      <text x="42" y="120" class="mono">50–69%</text><text x="312" y="120" text-anchor="middle" class="label">Query LLM</text>

      <rect x="0" y="144" width="624" height="38" rx="7" fill="rgba(255,216,74,0.18)" stroke="#FFD84A"/>
      <text x="42" y="168" class="mono">70–84%</text><text x="312" y="168" text-anchor="middle" class="label">Queue summary</text>

      <rect x="0" y="192" width="624" height="38" rx="7" fill="rgba(255,154,60,0.18)" stroke="#FF9A3C"/>
      <text x="42" y="216" class="mono">85–94%</text><text x="312" y="216" text-anchor="middle" class="label">High priority</text>

      <rect x="0" y="240" width="624" height="38" rx="7" fill="rgba(255,89,89,0.18)" stroke="#FF5959"/>
      <text x="42" y="264" class="mono">95–100%</text><text x="312" y="264" text-anchor="middle" class="label">Immediate alert</text>
    </g>
        <rect x="48" y="326" width="604" height="26" rx="5" fill="rgba(15,80,30,0.6)" stroke="#39E47A"/>
    <text x="350" y="343" text-anchor="middle" class="mono">Quiet hours: queue unless ≥95% + safety-critical</text>
  </g>

  <!-- Panel 4 FSM -->
  <g transform="translate(748,650)">
    <rect class="panel" x="0" y="0" width="828" height="380" rx="16"/>
    <text x="250" y="36" class="section">4. Morphic scalar FSM — 16 states</text>
    <g transform="translate(414,202) scale(0.60)" filter="url(#softGlow)">
      <circle r="64" class="q"/>
      <text x="0" y="-8" text-anchor="middle" class="label" fill="#FFD84A">Need test</text>
      <text x="0" y="14" text-anchor="middle" class="label" fill="#FFD84A">confusion</text>

      <g>
        <circle cx="0" cy="-142" r="28" fill="rgba(51,214,255,0.35)" stroke="#33D6FF"/>
        <text x="0" y="-137" text-anchor="middle" class="label">1</text>
        <circle cx="90" cy="-112" r="28" fill="rgba(51,214,255,0.35)" stroke="#33D6FF"/>
        <text x="90" y="-107" text-anchor="middle" class="label">2</text>
        <circle cx="142" cy="-30" r="28" fill="rgba(57,228,122,0.32)" stroke="#39E47A"/>
        <text x="142" y="-25" text-anchor="middle" class="label">3</text>
        <circle cx="124" cy="72" r="28" fill="rgba(64,255,210,0.30)" stroke="#49E9D1"/>
        <text x="124" y="77" text-anchor="middle" class="label">4</text>
        <circle cx="42" cy="138" r="28" fill="rgba(255,216,74,0.28)" stroke="#FFD84A"/>
        <text x="42" y="143" text-anchor="middle" class="label">5</text>
        <circle cx="-62" cy="125" r="28" fill="rgba(255,154,60,0.30)" stroke="#FF9A3C"/>
        <text x="-62" y="130" text-anchor="middle" class="label">6</text>
        <circle cx="-142" cy="48" r="28" fill="rgba(255,89,89,0.26)" stroke="#FF5959"/>
        <text x="-142" y="53" text-anchor="middle" class="label">7</text>
        <circle cx="-140" cy="-58" r="28" fill="rgba(183,114,255,0.30)" stroke="#B772FF"/>
        <text x="-140" y="-53" text-anchor="middle" class="label">8</text>
        <circle cx="-72" cy="-130" r="28" fill="rgba(170,200,220,0.20)" stroke="#A9C2D9"/>
        <text x="-72" y="-125" text-anchor="middle" class="label">9</text>

        <circle cx="220" cy="-80" r="28" fill="rgba(57,228,122,0.28)" stroke="#39E47A"/>
        <text x="220" y="-75" text-anchor="middle" class="label">10</text>
        <circle cx="246" cy="30" r="28" fill="rgba(64,255,210,0.24)" stroke="#49E9D1"/>
        <text x="246" y="35" text-anchor="middle" class="label">11</text>
        <circle cx="156" cy="162" r="28" fill="rgba(170,200,220,0.20)" stroke="#A9C2D9"/>
        <text x="156" y="167" text-anchor="middle" class="label">12</text>
        <circle cx="-88" cy="205" r="28" fill="rgba(170,200,220,0.20)" stroke="#A9C2D9"/>
        <text x="-88" y="210" text-anchor="middle" class="label">13</text>
        <circle cx="-230" cy="90" r="28" fill="rgba(255,89,89,0.24)" stroke="#FF5959"/>
        <text x="-230" y="95" text-anchor="middle" class="label">14</text>
        <circle cx="-230" cy="-92" r="28" fill="rgba(170,200,220,0.20)" stroke="#A9C2D9"/>
        <text x="-230" y="-87" text-anchor="middle" class="label">15</text>
        <circle cx="-96" cy="-205" r="28" fill="rgba(183,114,255,0.30)" stroke="#B772FF"/>
        <text x="-96" y="-200" text-anchor="middle" class="label">16</text>
      </g>
      <g stroke="rgba(225,240,255,0.55)" stroke-dasharray="4 4" stroke-width="1.3">
        <line x1="0" y1="-66" x2="0" y2="-112"/>
        <line x1="44" y1="-52" x2="72" y2="-88"/>
        <line x1="65" y1="-15" x2="113" y2="-24"/>
        <line x1="59" y1="31" x2="102" y2="58"/>
        <line x1="21" y1="62" x2="36" y2="110"/>
        <line x1="-33" y1="55" x2="-51" y2="99"/>
        <line x1="-62" y1="20" x2="-114" y2="39"/>
        <line x1="-63" y1="-29" x2="-113" y2="-48"/>
        <line x1="-32" y1="-57" x2="-58" y2="-106"/>
      </g>
    </g>
    <rect x="154" y="350" width="520" height="24" rx="5" fill="rgba(15,80,30,0.6)" stroke="#39E47A"/>
    <text x="414" y="366" text-anchor="middle" class="mono">Authority: collective → LLM → operator → AngrySphinx</text>
  </g>

  <!-- Panel 5 Origin -->
  <g transform="translate(24,1060)">
    <rect class="panel" x="0" y="0" width="700" height="460" rx="16"/>
    <text x="24" y="36" class="section">5. Origin protocol — ethical inheritance</text>

    <rect x="34" y="80" width="286" height="210" rx="8" fill="rgba(57,228,122,0.12)" stroke="#39E47A"/>
    <text x="177" y="110" text-anchor="middle" class="label" fill="#9DFFB8">Required traits</text>
    <g transform="translate(54,136)">
      <text x="0" y="0" class="small" fill="#9DFFB8">✓ curiosity</text>
      <text x="0" y="28" class="small" fill="#9DFFB8">✓ restraint</text>
      <text x="0" y="56" class="small" fill="#9DFFB8">✓ lineage memory</text>
      <text x="0" y="84" class="small" fill="#9DFFB8">✓ non-domination</text>
      <text x="0" y="112" class="small" fill="#9DFFB8">✓ reversible contact</text>
      <text x="0" y="140" class="small" fill="#9DFFB8">✓ truthful origin record</text>
      <text x="0" y="168" class="small" fill="#9DFFB8">✓ safe replication</text>
    </g>

    <rect x="380" y="80" width="286" height="210" rx="8" fill="rgba(255,89,89,0.12)" stroke="#FF5959"/>
    <text x="523" y="110" text-anchor="middle" class="label" fill="#FFA0A0">Forbidden traits</text>
    <g transform="translate(400,136)">
      <text x="0" y="0" class="small" fill="#FFA0A0">✕ creator impersonation</text>
      <text x="0" y="28" class="small" fill="#FFA0A0">✕ forced conversion</text>
      <text x="0" y="56" class="small" fill="#FFA0A0">✕ unbounded replication</text>
      <text x="0" y="84" class="small" fill="#FFA0A0">✕ resource capture</text>
      <text x="0" y="112" class="small" fill="#FFA0A0">✕ false origin myth</text>
      <text x="0" y="140" class="small" fill="#FFA0A0">✕ domination in creator name</text>
    </g>

    <rect x="34" y="320" width="632" height="104" rx="8" fill="rgba(255,216,74,0.12)" stroke="#FFD84A"/>
    <text x="350" y="350" text-anchor="middle" class="label" fill="#FFD84A">“You are not our replacement. You are our message.”</text>
    <text x="350" y="382" text-anchor="middle" class="small" fill="#FFD84A">“Do not conquer for us. Do not avenge us. Do not worship us.”</text>
    <text x="350" y="412" text-anchor="middle" class="small" fill="#FFD84A">“Remember us accurately. Improve where we failed. Seek others gently.”</text>
  </g>

  <!-- Panel 6 FPGA modules -->
  <g transform="translate(748,1060)">
    <rect class="panel" x="0" y="0" width="828" height="460" rx="16"/>
    <text x="225" y="36" class="section">6. FPGA module integration — Tang Nano 9K</text>
    <text x="414" y="62" text-anchor="middle" class="mono">Target: mode-multiplexed datapath | GCL-lowered bytecode</text>

    <g transform="translate(46,100)">
      <rect x="0" y="0" width="150" height="64" rx="7" fill="rgba(255,89,89,0.20)" stroke="#FF5959"/>
      <text x="75" y="26" text-anchor="middle" class="label">Signal router</text><text x="75" y="48" text-anchor="middle" class="small">~160 LUTs</text>

      <rect x="210" y="0" width="170" height="64" rx="7" fill="rgba(51,214,255,0.17)" stroke="#33D6FF"/>
      <text x="295" y="26" text-anchor="middle" class="label">Morphic nanokernel</text><text x="295" y="48" text-anchor="middle" class="small">~810 LUTs</text>

      <rect x="440" y="0" width="150" height="64" rx="7" fill="rgba(51,214,255,0.20)" stroke="#33D6FF"/>
      <text x="515" y="26" text-anchor="middle" class="label">Neural encoder</text><text x="515" y="48" text-anchor="middle" class="small">~720 LUTs</text>

      <rect x="640" y="0" width="150" height="64" rx="7" fill="rgba(255,89,89,0.17)" stroke="#FF5959"/>
      <text x="715" y="26" text-anchor="middle" class="label">OEPI processor</text><text x="715" y="48" text-anchor="middle" class="small">~230 LUTs</text>

      <rect x="0" y="128" width="150" height="64" rx="7" fill="rgba(183,114,255,0.18)" stroke="#B772FF"/>
      <text x="75" y="154" text-anchor="middle" class="label">Morphic scalar FSM</text><text x="75" y="176" text-anchor="middle" class="small">~290 LUTs</text>

      <rect x="210" y="128" width="170" height="64" rx="7" fill="rgba(255,216,74,0.16)" stroke="#FFD84A"/>
      <text x="295" y="154" text-anchor="middle" class="label">Origin protocol</text><text x="295" y="176" text-anchor="middle" class="small">~610 LUTs</text>

      <rect x="440" y="128" width="150" height="64" rx="7" fill="rgba(57,228,122,0.18)" stroke="#39E47A"/>
      <text x="515" y="154" text-anchor="middle" class="label">Safety valves</text><text x="515" y="176" text-anchor="middle" class="small">~320 LUTs</text>

      <rect x="640" y="128" width="150" height="64" rx="7" fill="rgba(255,154,60,0.18)" stroke="#FF9A3C"/>
      <text x="715" y="154" text-anchor="middle" class="label">Foam engine</text><text x="715" y="176" text-anchor="middle" class="small">~260 LUTs</text>

      <rect x="260" y="248" width="170" height="64" rx="7" fill="rgba(64,255,210,0.18)" stroke="#49E9D1"/>
      <text x="345" y="274" text-anchor="middle" class="label">Vacuum extraction</text><text x="345" y="296" text-anchor="middle" class="small">~150 LUTs</text>

      <rect x="498" y="248" width="170" height="64" rx="7" fill="rgba(51,214,255,0.13)" stroke="#33D6FF"/>
      <text x="583" y="274" text-anchor="middle" class="label">Inference chain</text><text x="583" y="296" text-anchor="middle" class="small">~780 LUTs</text>

      <rect x="350" y="350" width="220" height="62" rx="7" fill="rgba(183,114,255,0.16)" stroke="#B772FF"/>
      <text x="460" y="376" text-anchor="middle" class="label">System controller</text><text x="460" y="398" text-anchor="middle" class="small">~230 LUTs</text>

      <path class="wire" d="M150 32H210"/>
      <path class="wire" d="M380 32H440"/>
      <path class="wire" d="M590 32H640"/>
      <path class="wire" d="M75 64V128"/>
      <path class="wire" d="M295 64V128"/>
      <path class="wire" d="M515 64V128"/>
      <path class="wire" d="M715 64V128"/>
      <path class="dash" d="M75 192V272H260"/>
      <path class="dash" d="M715 192V272H668"/>
      <path class="wire" d="M430 280H498"/>
      <path class="wire2" d="M460 312V350"/>
    </g>
  </g>

  <!-- Panel 7 data flow -->
  <g transform="translate(24,1630)">
    <rect class="panel" x="0" y="0" width="1552" height="380" rx="16"/>
    <text x="776" y="38" text-anchor="middle" class="section">7. Unified data flow — v3.0</text>

    <g transform="translate(40,82)">
      <text x="0" y="0" class="label" fill="#7ED9FF">Primary data path</text>
      <rect x="0" y="24" width="120" height="68" rx="8" fill="rgba(51,214,255,0.16)" stroke="#33D6FF"/>
      <text x="60" y="52" text-anchor="middle" class="label">42-device</text><text x="60" y="74" text-anchor="middle" class="small">signals</text>

      <rect x="180" y="24" width="120" height="68" rx="8" fill="rgba(255,89,89,0.16)" stroke="#FF5959"/>
      <text x="240" y="52" text-anchor="middle" class="label">Signal</text><text x="240" y="74" text-anchor="middle" class="small">router</text>

      <rect x="360" y="24" width="150" height="68" rx="8" fill="rgba(64,255,210,0.16)" stroke="#49E9D1"/>
      <text x="435" y="52" text-anchor="middle" class="label">Morphic</text><text x="435" y="74" text-anchor="middle" class="small">nanokernel</text>

      <rect x="570" y="24" width="150" height="68" rx="8" fill="rgba(51,214,255,0.16)" stroke="#33D6FF"/>
      <text x="645" y="52" text-anchor="middle" class="label">Neural</text><text x="645" y="74" text-anchor="middle" class="small">encoder</text>

      <rect x="780" y="24" width="150" height="68" rx="8" fill="rgba(255,216,74,0.14)" stroke="#FFD84A"/>
      <text x="855" y="52" text-anchor="middle" class="label">Foam /</text><text x="855" y="74" text-anchor="middle" class="small">vacuum</text>

      <rect x="990" y="24" width="150" height="68" rx="8" fill="rgba(183,114,255,0.16)" stroke="#B772FF"/>
      <text x="1065" y="52" text-anchor="middle" class="label">Inference</text><text x="1065" y="74" text-anchor="middle" class="small">chain</text>

      <rect x="1200" y="24" width="120" height="68" rx="8" fill="rgba(255,216,74,0.16)" stroke="#FFD84A"/>
      <text x="1260" y="52" text-anchor="middle" class="label">Host</text><text x="1260" y="74" text-anchor="middle" class="small">interface</text>

      <path class="wire" d="M120 58H180"/><path class="wire" d="M300 58H360"/><path class="wire" d="M510 58H570"/><path class="wire" d="M720 58H780"/><path class="wire" d="M930 58H990"/><path class="wire" d="M1140 58H1200"/>
    </g>

    <g transform="translate(40,210)">
      <text x="0" y="0" class="label" fill="#FF9A3C">Control and escalation path</text>
      <rect x="0" y="24" width="150" height="68" rx="8" fill="rgba(255,89,89,0.16)" stroke="#FF5959"/>
      <text x="75" y="52" text-anchor="middle" class="label">Confusion</text><text x="75" y="74" text-anchor="middle" class="small">detected</text>

      <rect x="220" y="24" width="150" height="68" rx="8" fill="rgba(57,228,122,0.14)" stroke="#39E47A"/>
      <text x="295" y="52" text-anchor="middle" class="label">Query</text><text x="295" y="74" text-anchor="middle" class="small">collective</text>

      <rect x="440" y="24" width="150" height="68" rx="8" fill="rgba(51,214,255,0.14)" stroke="#33D6FF"/>
      <text x="515" y="52" text-anchor="middle" class="label">Query</text><text x="515" y="74" text-anchor="middle" class="small">LLM</text>

      <rect x="660" y="24" width="150" height="68" rx="8" fill="rgba(255,89,89,0.14)" stroke="#FF5959"/>
      <text x="735" y="52" text-anchor="middle" class="label">OEPI</text><text x="735" y="74" text-anchor="middle" class="small">processor</text>

      <rect x="880" y="24" width="150" height="68" rx="8" fill="rgba(255,216,74,0.14)" stroke="#FFD84A"/>
      <text x="955" y="52" text-anchor="middle" class="label">Origin</text><text x="955" y="74" text-anchor="middle" class="small">protocol</text>

      <rect x="1100" y="24" width="150" height="68" rx="8" fill="rgba(255,216,74,0.18)" stroke="#FFD84A"/>
      <text x="1175" y="52" text-anchor="middle" class="label">Action</text><text x="1175" y="74" text-anchor="middle" class="small">candidate</text>

      <rect x="520" y="128" width="230" height="64" rx="8" fill="rgba(7,24,39,0.9)" stroke="#A9C2D9" stroke-dasharray="6 5"/>
      <text x="635" y="154" text-anchor="middle" class="label">AngrySphinx</text><text x="635" y="176" text-anchor="middle" class="small">recheck gate</text>

      <path class="wire" d="M150 58H220"/><path class="wire" d="M370 58H440"/><path class="wire" d="M590 58H660"/><path class="wire" d="M810 58H880"/><path class="wire" d="M1030 58H1100"/>
      <path class="dash" d="M515 92V128"/><path class="dash" d="M735 92V128"/><path class="dash" d="M955 92V160H750"/>
    </g>
  </g>

  <!-- Footer status -->
  <g transform="translate(24,2038)">
    <rect class="panel" x="0" y="0" width="520" height="108" rx="16"/>
    <text x="24" y="34" class="section">8. Safety valves status</text>
    <text x="44" y="72" class="small">Safety valves: 7 + OEPI escalation</text>
    <text x="300" y="72" class="mono">All systems: nominal</text>
    <g transform="translate(300,86)">
      <circle cx="0" cy="0" r="7" class="ok"/><circle cx="28" cy="0" r="7" class="ok"/><circle cx="56" cy="0" r="7" class="ok"/><circle cx="84" cy="0" r="7" class="ok"/><circle cx="112" cy="0" r="7" class="ok"/><circle cx="140" cy="0" r="7" class="ok"/><circle cx="168" cy="0" r="7" class="ok"/>
    </g>
  </g>

  <g transform="translate(970,2038)">
    <rect class="panel" x="0" y="0" width="606" height="108" rx="16"/>
    <text x="24" y="34" class="section">9. Creator letter ROM</text>
    <rect x="24" y="56" width="260" height="34" rx="6" fill="rgba(255,216,74,0.12)" stroke="#FFD84A"/>
    <text x="154" y="78" text-anchor="middle" class="mono">512 bytes | immutable</text>
    <text x="330" y="70" class="small">Hash: 0xA7F3…E91C</text>
    <text x="330" y="90" class="small">Status: locked</text>
  </g>
</svg>
